<?xml version="1.0" standalone="no"?>
<!DOCTYPE svg PUBLIC "-//W3C//DTD SVG 20010904//EN"
 "http://www.w3.org/TR/2001/REC-SVG-20010904/DTD/svg10.dtd">
<svg version="1.0" xmlns="http://www.w3.org/2000/svg"
 width="260.000000pt" height="260.000000pt" viewBox="0 0 260.000000 260.000000"
 preserveAspectRatio="xMidYMid meet">
<metadata>
Created by potrace 1.11, written by Peter Selinger 2001-2013
</metadata>
<g transform="translate(0.000000,260.000000) scale(0.100000,-0.100000)"
fill="#000000" stroke="none">
<path d="M0 1300 l0 -1300 613 0 613 0 40 43 c83 86 120 170 133 301 23 231
-35 391 -229 631 -44 55 -97 134 -118 174 -33 67 -37 83 -37 151 0 119 35 181
240 425 139 166 158 192 149 206 -4 8 -3 9 4 5 7 -4 19 10 32 36 19 40 14 37
-18 -9 -7 -10 -10 -12 -7 -6 4 8 -47 63 -122 135 -129 125 -235 226 -423 407
l-105 100 -382 1 -383 0 0 -1300z"/>
<path d="M1476 2065 c-9 -26 -7 -32 5 -12 6 10 9 21 6 23 -2 3 -7 -2 -11 -11z"/>
<path d="M1546 2012 c-4 -10 -22 -45 -41 -77 -20 -32 -33 -60 -31 -62 2 -3 20
24 39 59 39 69 52 98 44 98 -3 0 -8 -8 -11 -18z"/>
<path d="M1490 1875 c-7 -8 -16 -13 -20 -10 -4 3 -15 -6 -23 -19 -9 -13 -71
-88 -138 -167 -189 -223 -238 -311 -225 -408 10 -70 46 -133 161 -281 181
-231 231 -366 223 -598 -6 -154 -29 -233 -93 -327 l-45 -65 635 0 635 0 0 420
0 421 -23 22 c-13 12 -84 80 -158 151 -201 194 -341 329 -469 450 -63 61 -155
148 -205 196 -255 244 -241 232 -255 215z"/>
</g>
</svg>
